<?xml version="1.0" standalone="no"?>
<!DOCTYPE svg PUBLIC "-//W3C//DTD SVG 20010904//EN"
 "http://www.w3.org/TR/2001/REC-SVG-20010904/DTD/svg10.dtd">
<svg version="1.0" xmlns="http://www.w3.org/2000/svg"
 width="1024.000000pt" height="1024.000000pt" viewBox="0 0 1024.000000 1024.000000"
 preserveAspectRatio="xMidYMid meet">

<g transform="translate(0.000000,1024.000000) scale(0.100000,-0.100000)"
fill="#000000" stroke="none">
<path d="M6119 9286 c-2 -2 -38 -7 -79 -10 -41 -3 -122 -11 -180 -16 -58 -5
-139 -12 -180 -15 -41 -4 -124 -15 -185 -26 -60 -10 -155 -26 -210 -35 -55 -8
-158 -26 -230 -39 -71 -13 -202 -31 -290 -40 -300 -29 -513 -67 -770 -136 -82
-22 -220 -54 -305 -70 -85 -16 -178 -34 -206 -40 -52 -10 -102 -48 -90 -68 4
-6 7 -49 7 -96 1 -47 3 -85 5 -85 2 0 10 12 18 28 14 25 15 26 16 5 0 -19 5
-23 35 -23 41 0 43 -10 14 -57 l-21 -34 38 7 c70 14 89 11 92 -13 3 -20 18
-28 45 -24 4 0 7 -4 7 -11 0 -6 3 -8 7 -5 3 4 16 -5 29 -18 14 -15 34 -25 51
-25 52 0 72 -24 75 -88 2 -47 6 -57 21 -56 9 1 17 -2 17 -7 0 -5 5 -9 11 -9
17 0 49 -40 56 -69 9 -39 22 -51 58 -51 18 0 38 -7 45 -15 14 -17 45 -12 73
13 9 8 17 11 18 6 0 -5 4 1 9 14 5 12 14 22 20 22 19 0 10 -16 -36 -60 -57
-55 -134 -162 -152 -210 -8 -19 -13 -53 -12 -75 1 -42 41 -122 66 -132 21 -8
17 -23 -6 -23 -10 0 -23 8 -29 17 -7 13 -8 7 -5 -22 2 -24 -3 -55 -13 -78 -12
-29 -14 -40 -5 -49 7 -7 12 -29 12 -50 0 -36 2 -38 25 -32 14 3 25 4 25 0 0
-11 -62 -119 -86 -151 -13 -18 -24 -40 -24 -51 1 -18 1 -18 14 -1 8 10 28 22
46 27 28 8 31 7 25 -8 -4 -9 -10 -27 -12 -39 -3 -13 -24 -43 -47 -68 -32 -34
-50 -45 -73 -45 -21 0 -49 -15 -91 -47 -34 -27 -73 -56 -87 -66 -13 -10 -34
-38 -45 -62 -14 -31 -31 -49 -57 -62 -41 -20 -57 -53 -26 -53 11 0 28 -6 39
-14 18 -14 18 -15 -11 -40 -37 -32 -55 -33 -105 -1 -27 17 -48 23 -63 20 -22
-6 -24 -2 -36 73 -14 94 -26 1639 -13 1765 4 42 7 77 5 77 -2 0 -70 -33 -152
-74 -884 -443 -1582 -1188 -1976 -2112 -26 -59 -48 -112 -51 -116 -3 -4 -48 8
-102 27 -53 18 -164 55 -247 80 -82 26 -187 60 -232 75 -62 22 -84 26 -91 17
-13 -16 -21 -67 -32 -207 -5 -63 -16 -171 -25 -240 -22 -169 -36 -323 -30
-329 3 -2 5 7 5 20 0 33 13 50 29 40 11 -7 11 -18 1 -62 -7 -29 -14 -85 -16
-123 -4 -93 -19 -221 -33 -274 -6 -23 -13 -59 -16 -80 -12 -86 -17 -102 -29
-102 -8 0 -16 -14 -20 -31 -9 -48 -7 -121 3 -114 15 9 25 -62 13 -93 -6 -15
-13 -56 -16 -92 -8 -86 5 -113 59 -120 37 -5 40 -8 43 -38 3 -27 -3 -39 -33
-67 -34 -33 -35 -36 -26 -72 6 -21 8 -65 6 -98 -2 -33 1 -65 6 -71 6 -7 6 -21
0 -37 -5 -13 -12 -69 -16 -123 -4 -55 -11 -122 -16 -150 -14 -74 5 -108 37
-67 12 17 13 17 14 1 0 -9 9 -18 19 -20 18 -3 18 -6 -10 -46 -16 -23 -29 -52
-29 -63 0 -11 -9 -37 -19 -57 -21 -40 -53 -206 -71 -362 -17 -140 -14 -595 4
-702 17 -101 59 -191 92 -196 22 -3 63 47 84 103 38 102 62 340 55 547 -4 122
-8 154 -25 185 -11 21 -20 42 -20 47 0 5 -7 14 -16 21 -22 16 -25 88 -4 92 26
6 55 -56 55 -116 0 -34 5 -56 13 -58 7 -3 12 3 12 14 0 20 18 43 32 43 5 0 13
-12 19 -27 8 -20 13 -23 16 -13 10 31 47 106 64 131 16 23 17 33 7 83 -9 43
-9 59 0 68 9 9 16 7 32 -7 31 -28 33 -51 7 -90 -40 -59 -11 -123 36 -77 18 19
19 25 9 60 -17 55 -16 68 3 52 8 -7 15 -29 15 -49 0 -62 9 -81 39 -81 40 0 49
-25 66 -200 9 -85 21 -175 26 -200 40 -174 82 -554 66 -585 -26 -51 -161 -272
-176 -290 -28 -32 -91 -154 -91 -175 0 -21 13 -24 115 -21 28 0 101 -11 164
-27 105 -25 115 -29 125 -55 8 -20 21 -30 51 -38 22 -6 78 -21 125 -34 82 -23
181 -36 305 -40 33 -1 79 -9 102 -18 45 -18 73 -14 73 10 0 10 -6 12 -20 8
-14 -5 -20 -2 -20 10 0 9 -5 13 -10 10 -13 -8 -42 14 -35 25 6 9 73 -8 93 -24
7 -5 11 -18 8 -29 -3 -14 -1 -17 12 -11 9 3 72 6 139 5 93 -2 136 2 178 15 30
10 58 14 62 10 10 -10 -10 -39 -35 -51 -38 -17 -27 -50 25 -83 27 -17 67 -36
91 -43 23 -7 42 -16 42 -20 0 -5 24 -11 52 -15 101 -14 245 -2 311 25 35 14
40 14 32 1 -7 -12 26 0 85 30 22 11 40 19 40 17 0 -2 -22 -19 -50 -38 -27 -19
-50 -40 -50 -46 0 -7 -7 -13 -15 -13 -8 0 -15 -9 -15 -20 0 -13 5 -18 15 -14
22 9 18 -19 -5 -34 -11 -7 -20 -17 -20 -23 0 -6 9 -8 20 -4 26 8 26 -1 0 -15
-26 -14 -63 -3 -56 16 5 12 -5 13 -52 9 -31 -4 -79 -8 -107 -10 -27 -3 -66 -6
-85 -9 -47 -5 -147 24 -177 52 -25 23 -64 25 -95 6 -7 -5 -68 -7 -135 -5 -125
3 -146 -4 -96 -30 37 -19 50 -32 54 -54 3 -13 20 -24 55 -35 l51 -15 -24 -25
c-30 -33 -25 -43 23 -45 21 -1 52 -8 68 -14 16 -7 36 -9 44 -6 7 3 19 2 25 -2
7 -5 21 -9 32 -10 52 -4 93 -11 103 -17 5 -3 34 -8 62 -11 28 -3 55 -7 58 -9
4 -2 34 -7 66 -10 33 -4 80 -11 105 -17 25 -6 60 -12 76 -14 105 -11 151 -19
162 -27 7 -5 17 -7 22 -4 5 4 12 2 15 -3 4 -5 19 -9 34 -9 15 0 123 -47 249
-110 506 -251 940 -379 1483 -439 211 -23 629 -23 840 0 896 99 1692 447 2363
1037 283 249 566 581 757 890 41 66 90 141 108 166 18 25 32 48 30 49 -4 4
-120 -54 -401 -198 -93 -48 -176 -87 -185 -87 -23 0 48 43 213 129 77 40 151
83 165 96 14 12 43 28 64 35 22 7 60 25 85 40 76 44 181 93 187 87 10 -10 -7
-27 -27 -27 -19 0 -34 -21 -27 -39 3 -9 82 24 109 45 8 6 127 69 264 139 138
70 306 157 375 193 69 36 136 72 150 79 14 7 31 13 39 13 8 0 62 24 120 54 58
29 123 59 144 65 30 10 37 17 37 39 0 74 -33 208 -80 327 -29 72 -77 193 -107
270 -30 77 -67 172 -83 210 -16 39 -70 178 -120 310 -51 132 -110 285 -132
340 -21 55 -54 141 -73 190 -19 50 -60 155 -91 235 -31 80 -73 190 -94 245
-21 55 -57 145 -80 200 -23 55 -79 201 -125 325 -104 283 -182 477 -205 510
-10 14 -43 75 -73 136 -218 436 -558 873 -944 1214 -279 246 -560 437 -893
605 -83 43 -173 96 -199 119 -74 65 -494 398 -577 457 -50 36 -86 53 -95 45z
m-978 -226 c20 0 7 -28 -15 -34 -14 -3 -58 -21 -98 -40 -40 -18 -95 -43 -123
-55 -27 -12 -57 -26 -66 -31 -28 -15 -99 -31 -110 -24 -16 9 18 42 52 49 15 4
51 17 79 31 27 13 53 24 56 24 14 0 74 33 74 41 0 5 -9 9 -21 9 -12 0 -19 5
-16 13 2 6 11 10 18 8 22 -5 51 -3 94 7 22 5 46 8 53 6 8 -2 18 -4 23 -4z
m522 -22 c20 -8 27 -17 25 -32 -4 -27 -127 -89 -223 -112 -38 -9 -77 -19 -85
-22 -43 -16 -223 -24 -254 -12 -107 40 129 159 378 189 68 8 117 5 159 -11z
m847 -218 c39 -20 126 -117 278 -309 80 -101 92 -121 73 -121 -19 0 -57 42
-189 210 -90 114 -150 181 -172 192 -18 9 -40 24 -49 33 -14 13 -14 15 2 15
10 0 35 -9 57 -20z m-443 -245 c13 -49 31 -130 42 -180 10 -49 40 -179 65
-288 44 -190 54 -257 39 -257 -5 0 -17 7 -28 16 -12 9 -30 12 -46 9 -18 -4
-41 1 -65 14 -48 26 -54 26 -54 2 0 -14 -6 -18 -29 -15 -39 5 -135 38 -195 69
-30 15 -66 25 -92 25 -67 0 -94 14 -94 50 0 23 -4 30 -19 30 -11 0 -23 -4 -26
-10 -7 -11 -57 -13 -102 -4 l-30 6 25 46 c43 79 87 129 316 360 265 267 259
264 293 127z m828 14 c5 -6 3 -9 -7 -9 -24 0 -48 11 -48 22 0 10 39 1 55 -13z
m270 -211 c35 -42 48 -99 25 -113 -5 -3 -10 -15 -10 -26 0 -27 -25 -24 -62 10
l-32 28 32 17 c22 11 32 24 32 40 0 23 -75 126 -92 126 -4 0 -8 5 -8 11 0 15
72 -44 115 -93z m-2717 -252 c-4 -31 -16 -53 -51 -91 -65 -69 -64 -79 4 -44
22 11 62 23 89 26 46 5 50 4 94 -37 l46 -43 0 42 c0 24 5 41 11 41 20 0 5
-133 -20 -180 -27 -52 -32 -58 -116 -145 -85 -87 -181 -144 -258 -152 -47 -5
-57 -2 -83 20 -26 22 -29 32 -28 79 0 31 9 72 22 101 23 52 17 58 -37 31 -26
-13 -37 -13 -67 -4 -130 43 -33 272 163 387 58 34 133 36 166 5 37 -35 50 -29
43 21 l-7 42 17 -29 c11 -19 15 -43 12 -70z m2793 61 c19 -12 47 -28 63 -35
16 -7 26 -15 23 -18 -5 -6 -137 64 -137 72 0 10 19 3 51 -19z m153 -83 c17 -6
22 -24 8 -24 -5 0 -17 7 -28 15 -19 15 -8 20 20 9z m-1139 -351 c7 -31 0 -40
-20 -23 -8 7 -15 26 -15 42 0 25 3 28 14 19 8 -7 17 -23 21 -38z m-736 -149
c16 -21 18 -30 10 -40 -18 -22 -37 -16 -54 16 -27 52 8 70 44 24z m-1449 -226
c-1 -24 -36 -60 -55 -57 -16 4 -15 7 9 37 29 33 46 41 46 20z m3341 -38 c47
-76 79 -191 79 -280 0 -70 -3 -82 -25 -109 -54 -63 -133 -78 -208 -40 -50 26
-128 88 -219 175 -67 64 -88 76 -88 50 0 -7 20 -93 45 -191 24 -98 42 -182 39
-187 -16 -25 -64 1 -64 35 0 11 -24 119 -54 241 -67 274 -65 260 -44 264 10 2
59 -38 128 -105 193 -186 271 -235 349 -218 44 10 81 75 81 144 0 60 -29 149
-65 201 -32 46 -33 73 -3 68 13 -2 33 -21 49 -48z m-4203 -271 c0 -152 -1
-168 -14 -144 -9 18 -12 41 -8 66 8 50 -10 52 -26 3 -14 -43 1 -114 25 -114
19 0 30 -77 16 -113 -13 -34 -27 -28 -36 15 -4 18 -16 44 -25 58 -11 14 -21
53 -25 92 -6 66 -6 68 19 78 14 5 26 13 26 17 2 46 20 195 25 203 18 29 22 -5
23 -161z m1988 97 c55 -19 69 -29 69 -45 0 -11 19 -39 41 -63 66 -68 79 -100
79 -198 0 -75 -4 -92 -30 -144 -34 -67 -116 -157 -192 -209 -55 -38 -270 -157
-285 -157 -4 0 -8 -5 -8 -11 0 -8 12 -9 38 -4 51 11 58 10 158 -21 140 -42
194 -64 194 -80 0 -8 -7 -14 -15 -14 -11 0 -15 -11 -15 -38 0 -41 -23 -82 -46
-82 -31 0 -532 146 -547 160 -5 4 -4 25 2 46 12 42 17 46 161 121 381 199 476
286 474 434 -1 65 -20 97 -86 141 -59 40 -130 47 -255 22 l-33 -6 0 46 c0 43
2 47 38 62 20 8 62 20 92 26 30 6 59 17 63 25 11 18 23 17 103 -11z m792 -227
c12 -5 22 -16 22 -24 0 -9 16 -29 35 -46 57 -50 96 -143 102 -241 16 -252
-137 -585 -302 -660 -58 -26 -148 -30 -209 -9 -66 23 -132 93 -156 166 -53
159 -1 458 107 618 69 102 123 143 224 173 30 9 63 23 74 30 20 14 52 12 103
-7z m-2208 -149 c0 -11 -40 -34 -47 -26 -3 3 -3 12 0 21 7 16 47 21 47 5z
m5010 -203 c0 -13 -39 -41 -47 -34 -2 3 2 14 9 26 14 23 38 28 38 8z m-230
-46 c0 -14 -9 -20 -35 -23 -19 -2 -35 -3 -35 -1 0 3 63 43 68 43 1 0 2 -9 2
-19z m125 0 c7 -12 -31 -25 -45 -16 -5 3 -10 10 -10 16 0 12 47 12 55 0z
m-3865 -46 c0 -8 -4 -15 -9 -15 -13 0 -22 16 -14 24 11 11 23 6 23 -9z m4010
-15 c-6 -11 -8 -25 -5 -30 9 -15 -4 -50 -19 -50 -8 0 -19 -7 -26 -15 -10 -12
-8 -16 13 -24 23 -9 24 -14 20 -58 -5 -45 -23 -86 -23 -51 0 9 -12 18 -30 22
-16 3 -43 9 -60 12 -23 5 -30 3 -30 -10 0 -8 11 -18 25 -22 14 -3 25 -8 25
-10 0 -14 -34 -53 -42 -48 -5 3 -12 -4 -15 -16 -4 -17 -10 -20 -27 -15 -11 4
-37 9 -56 12 -19 3 -39 12 -43 19 -6 11 -13 12 -28 3 -30 -16 -50 5 -42 44 3
18 11 37 17 44 12 13 134 35 148 27 14 -9 78 25 78 42 0 17 13 32 51 56 14 9
34 33 43 52 9 20 21 36 27 36 6 0 6 -8 -1 -20z m-400 -30 c0 -33 -4 -40 -19
-40 -22 0 -35 48 -19 68 21 25 38 13 38 -28z m-3670 10 c0 -12 -28 -25 -36
-17 -9 9 6 27 22 27 8 0 14 -5 14 -10z m-64 -21 c10 -17 -13 -36 -27 -22 -12
12 -4 33 11 33 5 0 12 -5 16 -11z m3854 -79 c0 -5 -8 -10 -17 -10 -15 0 -16 2
-3 10 19 12 20 12 20 0z m-4282 -57 c36 -22 62 -54 62 -76 0 -14 -5 -17 -22
-11 -50 15 -98 70 -84 93 9 14 12 14 44 -6z m3818 -10 c-2 -3 -14 -2 -27 2
-16 6 -18 9 -8 16 13 7 45 -9 35 -18z m724 -78 c0 -8 -4 -15 -9 -15 -13 0 -22
16 -14 24 11 11 23 6 23 -9z m-8207 -19 c21 -16 22 -32 1 -40 -33 -13 -44 -6
-44 24 0 32 14 38 43 16z m8162 4 c3 -5 1 -10 -4 -10 -6 0 -11 5 -11 10 0 6 2
10 4 10 3 0 8 -4 11 -10z m-173 -50 c22 0 23 -13 3 -30 -9 -7 -13 -21 -10 -31
4 -11 -1 -21 -11 -27 -10 -6 -15 -16 -11 -26 12 -31 48 -17 106 44 57 60 74
69 86 50 3 -5 13 -10 21 -10 8 0 12 5 9 10 -3 6 -1 10 5 10 13 0 2 -73 -11
-78 -12 -5 -11 -39 1 -47 12 -7 14 -65 3 -65 -5 0 -17 7 -27 15 -24 18 -36 11
-36 -22 0 -23 3 -25 30 -19 29 5 30 4 30 -28 0 -99 -31 -133 -90 -98 -18 11
-40 18 -49 15 -11 -4 -10 -1 4 11 20 16 20 16 1 31 -11 8 -30 15 -42 15 -13 0
-37 15 -55 35 -40 42 -57 44 -71 7 -8 -19 -25 -34 -54 -46 -24 -10 -44 -22
-44 -27 0 -21 80 -1 81 20 0 9 5 2 10 -16 5 -17 23 -45 39 -62 36 -35 37 -42
9 -59 -18 -12 -26 -10 -61 14 -33 23 -43 26 -58 16 -16 -10 -21 -8 -30 9 -6
11 -22 24 -36 29 -31 12 -30 25 2 47 14 9 30 27 35 40 5 15 17 23 32 23 15 0
29 9 37 25 8 14 27 29 44 33 30 8 31 10 31 68 1 32 4 65 9 72 5 9 -4 18 -33
29 -44 17 -45 38 -1 29 20 -3 30 -1 34 10 5 14 8 14 28 0 12 -9 30 -16 40 -16z
m-537 -8 c-3 -3 -11 0 -18 7 -9 10 -8 11 6 5 10 -3 15 -9 12 -12z m320 -41 c3
-5 1 -12 -4 -15 -5 -3 -7 -15 -4 -25 6 -25 -11 -35 -27 -16 -10 12 -10 21 -2
40 12 26 27 32 37 16z m-119 -16 c19 -14 19 -14 -1 -15 -30 0 -65 11 -65 21 0
14 44 10 66 -6z m-127 -14 c7 -5 9 -11 4 -14 -6 -4 -19 0 -29 8 -15 11 -16 14
-4 15 8 0 21 -4 29 -9z m-4209 -155 c52 -19 147 -47 210 -61 63 -15 153 -35
200 -46 47 -11 108 -26 135 -33 28 -8 68 -17 90 -21 22 -3 72 -17 110 -30 39
-13 95 -30 125 -38 87 -24 296 -83 400 -112 52 -15 129 -35 170 -45 226 -54
421 -111 484 -141 22 -11 58 -19 81 -19 29 0 67 -13 126 -43 46 -24 112 -51
147 -61 35 -9 79 -26 97 -38 46 -26 129 -48 187 -48 40 0 179 -39 280 -79 13
-5 44 -17 71 -26 26 -9 47 -21 47 -26 0 -16 -61 -47 -104 -54 -56 -9 -133 -33
-182 -56 -22 -10 -64 -19 -92 -20 -29 -1 -60 -8 -70 -15 -15 -11 -15 -13 11
-23 15 -6 27 -13 27 -15 0 -14 -64 -76 -79 -77 -10 0 -11 -2 -3 -6 17 -7 15
-23 -3 -23 -8 0 -15 5 -15 10 0 16 -22 12 -58 -10 -28 -17 -32 -23 -22 -35 9
-11 9 -15 1 -15 -6 0 -11 5 -11 11 0 15 -53 7 -58 -9 -3 -9 3 -11 22 -6 16 4
26 2 26 -5 0 -6 -6 -11 -12 -11 -17 0 -77 -49 -60 -50 6 0 12 5 12 11 0 5 4 8
10 4 8 -5 48 12 60 26 3 4 16 10 30 14 14 4 43 15 65 25 68 29 80 34 90 35 6
1 23 7 38 13 38 16 47 15 63 -5 7 -10 14 -13 14 -6 0 6 -4 15 -10 18 -21 13
-8 23 51 35 77 16 95 4 47 -33 -18 -14 -45 -29 -60 -32 -16 -4 -28 -13 -28
-21 0 -8 -6 -11 -15 -8 -8 4 -15 2 -15 -4 0 -5 7 -12 15 -16 8 -3 15 -1 15 4
0 6 7 10 15 10 21 0 19 -16 -2 -23 -10 -3 -29 -12 -43 -21 -36 -21 -157 -76
-200 -91 -3 -1 -18 -7 -33 -13 -16 -7 -35 -12 -43 -12 -8 0 -14 -5 -14 -11 0
-6 -7 -9 -15 -5 -8 3 -15 1 -15 -4 0 -6 -7 -10 -15 -10 -8 0 -39 -13 -68 -29
-73 -41 -122 -49 -150 -24 -41 36 -74 47 -101 35 -17 -8 -23 -17 -19 -30 5
-21 -1 -24 -67 -37 -19 -4 -46 -15 -60 -25 -14 -9 -63 -25 -109 -35 -86 -18
-159 -51 -144 -66 5 -5 26 -3 48 3 22 6 45 11 52 10 6 -2 14 2 18 8 8 13 25
13 25 0 0 -5 -7 -10 -15 -10 -8 0 -15 -4 -15 -9 0 -5 -12 -12 -27 -15 -16 -4
-61 -23 -100 -42 -40 -18 -78 -34 -84 -34 -5 0 -20 -5 -32 -12 -12 -7 -33 -11
-46 -9 -13 2 -21 -1 -17 -7 4 -6 -3 -8 -16 -4 -16 4 -20 2 -15 -10 4 -12 1
-14 -14 -11 -10 3 -19 1 -19 -5 0 -6 -18 -13 -40 -17 -22 -4 -40 -10 -40 -15
0 -5 -18 -11 -40 -15 -22 -4 -40 -11 -40 -16 0 -4 -7 -6 -15 -3 -8 4 -15 1
-15 -5 0 -6 -8 -11 -17 -11 -10 0 -48 -11 -85 -24 -44 -16 -68 -20 -67 -13 0
14 22 124 44 227 9 41 32 152 52 245 19 94 41 195 49 226 26 105 25 106 -142
209 -13 8 -24 20 -24 27 0 14 56 48 95 57 37 9 75 43 75 68 0 23 -18 23 -44
-1 -12 -10 -56 -33 -99 -51 -83 -35 -121 -35 -130 0 -3 11 -12 20 -21 20 -17
0 -95 51 -96 63 -1 21 116 -11 136 -37 10 -15 21 -17 54 -11 53 9 47 28 -11
36 -24 4 -82 19 -129 34 -47 15 -108 28 -136 29 -36 1 -59 7 -74 21 -12 11
-41 27 -63 35 -30 11 -46 24 -57 47 -16 35 -36 42 -54 18 -9 -13 -30 -5 -147
52 -160 80 -275 133 -289 133 -11 0 -86 37 -115 57 -19 14 -19 14 -1 11 32 -5
28 17 -10 55 -21 20 -34 40 -30 44 3 4 24 6 46 5 36 -3 40 0 40 20 0 17 -12
29 -42 44 -49 25 -67 52 -21 32 15 -6 33 -17 38 -23 6 -6 18 -14 29 -18 15 -6
17 -4 12 15 -3 13 -6 28 -6 34 0 7 -11 15 -25 18 -13 3 -29 15 -35 26 -9 16
-8 18 5 14 27 -11 16 18 -21 51 -33 31 -36 55 -4 34 26 -15 46 -10 58 16 6 14
17 25 24 25 7 0 56 -15 108 -34z m3606 -43 c-11 -11 -17 4 -9 23 7 18 8 18 11
1 2 -10 1 -21 -2 -24z m727 -65 c8 -18 22 -39 31 -47 28 -23 46 -67 45 -108
-1 -21 -4 -28 -6 -17 -2 12 -13 30 -24 40 -10 9 -19 23 -19 29 0 7 -15 35 -33
61 -31 46 -38 74 -16 74 5 0 15 -15 22 -32z m-7023 -13 c0 -2 3 -10 6 -19 5
-13 1 -14 -26 -6 -42 12 -46 16 -30 35 9 11 17 12 31 4 10 -5 19 -11 19 -14z
m2040 -42 c15 -20 18 -29 9 -32 -13 -4 -49 33 -49 50 0 17 19 9 40 -18z m120
-39 c18 -25 29 -48 25 -52 -9 -9 -75 64 -75 83 0 27 18 16 50 -31z m4783 19
c9 -3 17 -12 17 -19 0 -17 -65 -20 -75 -4 -12 19 4 43 23 35 9 -4 25 -10 35
-12z m576 8 c31 -20 -34 -121 -78 -121 -26 0 -27 -11 -1 -33 11 -9 20 -23 20
-32 0 -8 9 -19 21 -26 15 -7 18 -14 11 -21 -16 -16 -42 -2 -42 22 0 23 -18 27
-26 5 -8 -21 -37 -19 -65 4 -23 19 -23 20 -6 55 10 22 24 36 35 36 30 0 34 12
11 36 -23 25 -17 48 12 41 10 -3 24 2 31 10 11 13 42 31 58 32 3 0 11 -3 19
-8z m-309 -43 c23 -17 29 -28 28 -55 -1 -21 -9 -39 -20 -47 -10 -7 -21 -27
-24 -45 -4 -17 -11 -34 -15 -37 -14 -8 -11 44 3 66 10 16 10 24 1 40 -7 10
-16 37 -19 60 -8 47 2 51 46 18z m-970 -22 c0 -16 -18 -31 -27 -22 -8 8 5 36
17 36 5 0 10 -6 10 -14z m640 4 c0 -5 -7 -10 -15 -10 -8 0 -15 5 -15 10 0 6 7
10 15 10 8 0 15 -4 15 -10z m-744 -136 c-4 -13 -13 -24 -21 -24 -19 0 -19 6 3
58 16 39 17 40 20 16 2 -15 1 -37 -2 -50z m635 60 c65 -18 147 -83 173 -138
20 -42 21 -125 2 -169 -33 -76 -132 -132 -259 -144 -32 -3 -60 -10 -63 -15 -3
-5 4 -29 16 -53 15 -31 23 -69 25 -125 l4 -79 -49 -54 c-113 -123 -295 -157
-452 -83 -72 34 -143 104 -159 155 -14 46 -12 52 58 198 42 88 46 93 99 119
40 19 77 28 130 32 40 2 78 10 83 16 7 8 5 27 -5 56 -66 189 160 350 397 284z
m-7355 -56 c19 -57 4 -217 -24 -240 -13 -11 -14 -9 -8 22 17 84 18 118 2 148
-17 32 -20 69 -10 97 10 24 26 13 40 -27z m7690 -44 c-3 -8 -10 -14 -16 -14
-11 0 -14 43 -3 54 10 10 26 -23 19 -40z m204 16 c12 -16 27 -30 33 -30 7 0
24 -8 37 -17 15 -11 43 -18 70 -18 35 0 45 -4 48 -19 6 -30 -13 -41 -39 -22
-30 21 -56 20 -67 0 -11 -20 -32 -10 -32 16 0 21 -29 35 -43 21 -7 -7 -4 -19
7 -36 10 -15 15 -29 13 -32 -10 -9 -47 23 -56 49 -12 35 -28 36 -43 3 -11 -24
-12 -24 -31 -8 -17 16 -20 16 -30 2 -13 -16 -103 -50 -112 -41 -3 3 -5 13 -5
23 0 18 19 29 49 29 10 0 35 16 55 35 21 19 43 35 50 35 7 0 21 9 31 20 25 27
40 25 65 -10z m-313 -40 c5 -22 6 -40 2 -40 -5 0 -9 8 -9 18 0 10 -7 28 -16
40 -12 17 -12 22 -2 22 8 0 19 -18 25 -40z m-913 -87 c-7 -30 -24 -55 -24 -35
0 12 21 62 27 62 2 0 0 -12 -3 -27z m926 -23 c0 -11 -4 -20 -10 -20 -5 0 -10
9 -10 20 0 11 5 20 10 20 6 0 10 -9 10 -20z m164 4 c11 -28 6 -54 -8 -54 -21
0 -29 17 -22 46 7 27 21 31 30 8z m276 -19 c0 -8 -6 -15 -14 -15 -8 0 -16 7
-20 15 -4 10 1 15 14 15 11 0 20 -7 20 -15z m-300 -71 c0 -8 -7 -14 -15 -14
-15 0 -21 21 -9 33 10 9 24 -2 24 -19z m-46 -52 c-8 -39 -13 -36 -24 12 -9 40
-2 53 17 33 9 -8 11 -24 7 -45z m-7474 38 c0 -5 -5 -10 -11 -10 -5 0 -7 5 -4
10 3 6 8 10 11 10 2 0 4 -4 4 -10z m-88 -34 c31 -4 48 -1 52 7 4 7 4 2 2 -10
-4 -23 26 -43 87 -57 23 -5 29 -2 39 19 12 27 25 33 83 40 20 3 42 8 48 12 6
4 1 -8 -12 -25 -26 -37 -59 -62 -81 -62 -12 0 -16 -13 -17 -62 -1 -60 -3 -64
-40 -95 -22 -19 -54 -35 -78 -38 -22 -4 -50 -13 -62 -21 -12 -8 -31 -14 -41
-14 -26 0 -39 -18 -57 -76 -23 -76 -17 -174 12 -174 7 0 17 -8 20 -17 11 -29
25 -33 94 -27 41 4 80 2 101 -5 41 -14 68 -6 68 19 0 23 16 35 26 19 4 -7 24
-9 58 -5 30 4 64 2 80 -4 22 -8 43 -6 98 11 43 12 81 18 99 14 56 -12 27 -53
-53 -75 -51 -13 -59 -28 -31 -55 33 -34 59 -36 112 -8 56 29 86 26 76 -8 -15
-45 46 -99 96 -86 25 7 33 -11 48 -111 16 -107 17 -106 -24 -99 -33 5 -37 3
-60 -33 -35 -55 -52 -62 -94 -39 -45 24 -55 24 -103 -3 -27 -15 -41 -31 -45
-50 -7 -37 -26 -51 -73 -52 -44 -1 -51 13 -25 48 13 17 11 22 -21 53 -42 41
-40 57 8 61 23 2 45 13 61 30 14 15 43 38 66 52 46 27 49 37 22 69 -16 19 -23
21 -41 11 -19 -10 -59 -5 -70 9 -13 16 -61 40 -93 46 -20 4 -38 13 -40 19 -6
16 -69 46 -95 46 -12 0 -32 11 -46 24 -62 57 -200 32 -248 -46 -38 -61 -55
-45 -38 35 7 28 10 66 8 82 -3 27 -6 24 -39 -45 l-37 -75 6 83 c4 73 3 84 -14
96 -10 8 -22 12 -25 10 -4 -2 -14 5 -23 15 -12 14 -16 33 -14 67 3 42 6 49 25
52 23 3 41 41 29 60 -7 12 13 72 25 72 5 0 9 -16 9 -35 0 -36 13 -47 24 -19 9
23 7 74 -2 74 -5 0 -6 26 -4 59 3 36 0 61 -7 65 -6 4 -11 1 -11 -6 -1 -12 -54
-78 -64 -78 -2 0 -7 28 -11 61 -4 34 -11 56 -15 50 -9 -15 -27 6 -25 29 1 8 3
22 3 30 2 10 7 8 18 -8 15 -22 17 -22 34 -7 10 9 21 27 24 41 4 16 14 24 27
24 16 0 19 -4 14 -21 -9 -29 4 -98 15 -79 4 8 10 30 13 49 8 46 42 81 76 76
14 -2 47 -6 73 -9z m7618 -130 c0 -2 -3 -11 -6 -20 -9 -23 -24 -20 -24 4 0 11
7 20 15 20 8 0 15 -2 15 -4z m840 -39 c135 -132 158 -452 59 -819 -12 -46 -18
-83 -13 -88 5 -5 45 -4 92 2 45 6 85 9 87 6 3 -3 6 -22 8 -43 l2 -39 -114 -19
c-62 -10 -119 -16 -127 -13 -19 7 -18 69 1 134 9 28 30 115 47 194 59 267 40
508 -47 595 -43 43 -80 44 -103 3 -27 -48 -52 -34 -52 29 0 35 25 70 63 86 38
16 58 10 97 -28z m-594 -12 c1 -13 -2 -27 -7 -30 -5 -4 -9 11 -9 31 0 40 12
40 16 -1z m-146 -25 c-20 -13 -43 -13 -35 0 3 6 16 10 28 10 18 0 19 -2 7 -10z
m-6430 -40 c0 -5 -7 -10 -16 -10 -8 0 -12 5 -9 10 3 6 10 10 16 10 5 0 9 -4 9
-10z m-94 -19 c-9 -14 -156 -91 -174 -91 -28 0 5 25 83 64 69 35 101 44 91 27z
m-1486 -52 c0 -29 -13 -39 -25 -18 -10 15 4 61 15 54 6 -3 10 -19 10 -36z
m8188 2 c-2 -10 -11 -15 -27 -13 -16 3 -22 -1 -19 -10 3 -7 16 -14 30 -16 22
-3 26 -9 31 -50 9 -88 8 -200 -3 -324 -17 -196 -39 -367 -55 -443 -8 -38 -15
-82 -15 -96 0 -31 -24 -57 -35 -39 -4 7 -16 10 -26 7 -12 -3 -19 0 -19 9 0 8
4 14 8 14 12 0 32 46 25 54 -4 3 -14 6 -24 6 -20 0 -79 31 -79 42 0 4 17 10
38 14 39 7 102 40 102 54 0 14 -32 41 -44 37 -6 -2 -12 -13 -14 -24 -4 -24
-46 -46 -73 -38 -13 4 -19 18 -21 48 -3 39 -5 42 -37 47 -19 3 -36 11 -39 18
-3 9 13 12 56 12 41 0 63 5 72 15 19 23 7 28 -67 26 -63 -1 -69 0 -79 23 -15
32 -6 41 18 19 23 -21 33 -11 18 17 -13 24 -6 36 25 42 12 2 19 10 17 20 -1 8
5 21 13 28 21 17 19 37 -5 52 -24 15 -26 28 -5 28 23 0 18 47 -7 64 -12 9 -19
18 -16 22 7 6 75 -14 96 -30 17 -12 29 1 14 16 -7 7 -12 19 -12 28 0 8 -14 23
-32 33 -23 13 -28 21 -20 29 9 9 7 16 -5 30 -15 17 -15 20 -3 28 30 19 80 11
104 -17 l23 -27 18 21 c21 25 28 122 13 169 -14 40 12 85 43 77 12 -3 19 -12
17 -22z m-6898 -51 c0 -5 -15 -25 -32 -44 -18 -18 -45 -52 -60 -75 -30 -44
-48 -53 -48 -22 0 11 20 40 45 65 25 26 45 51 45 56 0 9 29 29 43 30 4 0 7 -4
7 -10z m4860 -8 c0 -8 -43 -28 -82 -38 -16 -3 -28 -4 -28 0 0 8 41 29 75 37
17 4 31 7 33 8 1 1 2 -2 2 -7z m-5595 -46 c19 -8 35 -21 35 -28 0 -7 3 -24 6
-38 l6 -25 -19 22 c-10 12 -37 26 -60 32 -23 7 -45 16 -48 21 -5 8 19 24 43
29 1 1 18 -6 37 -13z m-156 -20 c33 -18 14 -28 -71 -36 -65 -6 -69 -5 -66 15
2 15 13 21 43 26 62 10 68 9 94 -5z m5551 -16 c0 -5 -2 -10 -4 -10 -3 0 -8 5
-11 10 -3 6 -1 10 4 10 6 0 11 -4 11 -10z m868 -9 c3 -8 -1 -12 -9 -9 -7 2
-15 10 -17 17 -3 8 1 12 9 9 7 -2 15 -10 17 -17z m1117 -19 c-3 -3 -11 0 -18
7 -9 10 -8 11 6 5 10 -3 15 -9 12 -12z m-2055 -2 c0 -5 -4 -10 -10 -10 -5 0
-10 5 -10 10 0 6 5 10 10 10 6 0 10 -4 10 -10z m320 -19 c0 -5 -8 -11 -17 -15
-10 -3 -24 -9 -30 -12 -8 -3 -13 1 -13 10 0 10 6 13 15 10 8 -4 15 -1 15 5 0
6 7 11 15 11 8 0 15 -4 15 -9z m1120 -95 c0 -17 -50 -40 -62 -28 -11 11 -28
69 -21 76 8 8 83 -35 83 -48z m-6187 19 c-3 -9 -8 -14 -10 -11 -3 3 -2 9 2 15
9 16 15 13 8 -4z m1104 -45 c13 -16 31 -30 39 -30 8 0 14 -9 14 -20 0 -35 -45
-26 -69 14 -20 32 -28 66 -15 66 3 0 17 -13 31 -30z m4171 -44 c3 -12 -1 -17
-10 -14 -7 3 -15 13 -16 22 -3 12 1 17 10 14 7 -3 15 -13 16 -22z m-5308 -38
c0 -23 -3 -29 -11 -21 -6 6 -8 20 -4 32 9 30 15 26 15 -11z m322 -53 c6 -14 8
-28 5 -31 -10 -11 -37 17 -37 37 0 27 18 23 32 -6z m908 -5 c0 -3 -5 -12 -10
-20 -8 -13 -11 -13 -26 2 -9 9 -14 24 -11 32 6 14 10 14 27 4 11 -7 20 -15 20
-18z m5220 -5 c0 -8 -4 -15 -10 -15 -5 0 -10 7 -10 15 0 8 5 15 10 15 6 0 10
-7 10 -15z m-7263 -30 c8 -23 -4 -30 -22 -12 -19 20 -19 27 0 27 9 0 18 -7 22
-15z m1651 -2 c2 -7 -3 -13 -12 -13 -24 0 -31 -22 -11 -36 14 -11 21 -10 39 2
26 16 36 10 36 -23 0 -21 -4 -23 -50 -23 -53 0 -62 -8 -30 -27 15 -10 26 -10
47 -1 15 6 35 10 43 9 23 -3 50 -40 50 -67 0 -13 4 -24 8 -24 5 0 14 -12 21
-26 15 -33 0 -53 -33 -47 -13 3 -27 -1 -31 -7 -9 -14 12 -30 40 -30 29 0 55
-53 55 -111 0 -44 -5 -54 -41 -94 -77 -84 -187 -88 -276 -11 -32 27 -29 66 7
101 46 44 35 91 -11 49 -9 -8 -31 -16 -48 -16 -17 -1 -36 -7 -42 -15 -19 -22
-44 -15 -75 23 -16 20 -41 51 -55 68 -15 17 -36 49 -48 71 l-22 40 26 22 c26
23 60 21 51 -2 -9 -25 7 -24 36 0 34 29 46 31 54 10 8 -21 43 -19 82 5 25 15
32 27 32 50 0 16 -4 30 -10 30 -5 0 -10 6 -10 14 0 15 57 46 87 46 23 0 38 11
46 33 8 20 38 20 45 0z m407 -1 c26 -17 59 -78 66 -121 6 -32 18 -54 38 -71
40 -34 50 -76 21 -85 -14 -4 -28 -1 -39 9 -10 9 -22 16 -28 16 -13 0 -33 53
-33 84 0 11 -14 49 -31 83 -35 71 -32 112 6 85z m3422 -27 c25 -19 50 -35 56
-35 5 0 7 -7 4 -15 -7 -17 37 -55 64 -55 37 0 89 -33 89 -56 0 -26 19 -35 58
-28 21 3 42 -7 102 -51 41 -31 80 -63 87 -72 8 -10 20 -13 36 -9 25 6 137 -46
137 -64 0 -5 15 -14 34 -20 35 -11 86 -55 86 -72 0 -6 -8 -7 -17 -3 -10 4 -34
11 -53 16 -19 4 -39 14 -45 21 -11 15 -56 48 -65 48 -3 0 -6 -11 -6 -25 -1
-14 2 -25 7 -25 6 0 22 -9 37 -20 15 -11 54 -28 87 -39 33 -11 75 -27 93 -36
19 -10 43 -14 56 -11 16 4 29 -1 41 -14 10 -11 24 -20 32 -20 21 0 126 -55
160 -84 17 -14 38 -26 46 -26 8 0 25 -8 38 -19 13 -10 44 -28 69 -40 72 -34
153 -85 181 -113 14 -14 53 -39 85 -55 59 -30 259 -147 323 -190 19 -13 46
-26 59 -30 25 -6 133 -73 186 -115 16 -13 65 -43 110 -68 66 -37 82 -50 84
-72 4 -30 -26 -63 -64 -72 -14 -4 -50 -26 -82 -50 -31 -24 -96 -69 -144 -100
-76 -49 -118 -89 -109 -106 2 -3 -11 -13 -28 -22 -27 -15 -31 -16 -31 -2 0 23
-28 63 -84 121 -37 39 -55 51 -71 47 -14 -3 -27 3 -41 19 -17 19 -35 25 -86
30 -36 3 -84 14 -107 23 -55 22 -73 8 -37 -31 20 -22 30 -26 55 -20 16 3 32 2
35 -3 3 -5 26 -13 51 -16 24 -4 47 -11 50 -17 4 -5 20 -9 37 -9 25 0 42 -12
89 -61 52 -54 57 -65 52 -93 -7 -39 -39 -65 -80 -66 -35 0 -42 10 -19 30 21
17 9 39 -17 32 -12 -3 -25 -10 -28 -15 -4 -5 -12 -6 -19 -2 -9 6 -9 9 1 15 9
6 4 19 -23 52 -20 24 -38 55 -40 68 -4 30 -38 41 -38 12 0 -11 6 -25 14 -31 7
-6 16 -28 19 -47 4 -20 13 -44 22 -54 9 -10 12 -20 7 -23 -14 -10 -87 -11
-101 -3 -8 5 -18 0 -27 -13 -8 -12 -24 -21 -35 -21 -14 0 -19 -5 -17 -17 3
-14 12 -17 43 -15 126 8 120 9 123 -20 4 -34 -24 -44 -70 -25 -30 13 -38 13
-62 0 -24 -13 -30 -13 -52 2 -22 14 -26 14 -40 1 -8 -9 -22 -12 -32 -9 -27 10
-82 57 -82 70 0 6 -9 14 -19 18 -11 3 -25 22 -32 43 -7 20 -29 74 -51 120 -21
46 -38 88 -38 93 0 17 26 9 79 -26 38 -25 57 -33 69 -26 12 7 23 1 45 -23 20
-21 32 -27 35 -18 4 14 -25 52 -39 52 -15 0 -88 55 -89 66 0 6 -9 19 -20 29
-29 26 -25 35 15 35 19 0 35 -4 35 -9 0 -6 18 -9 40 -9 30 0 43 6 51 20 8 14
18 19 35 15 35 -6 21 4 -33 25 -34 13 -51 14 -65 7 -11 -6 -32 -7 -49 -4 -17
4 -40 1 -58 -8 -24 -12 -33 -12 -61 -1 -47 20 -59 17 -66 -13 -4 -16 -23 -45
-42 -65 -34 -36 -39 -38 -99 -38 -61 0 -172 29 -200 52 -7 5 -18 8 -25 5 -7
-3 14 -17 46 -32 33 -16 74 -38 92 -50 58 -40 151 -27 212 29 23 20 24 20 37
3 8 -12 11 -32 8 -53 -5 -30 -1 -40 24 -67 31 -33 53 -68 53 -85 0 -20 -135
-38 -147 -19 -10 17 15 31 32 17 19 -15 20 0 1 25 -8 11 -20 16 -33 13 -15 -4
-24 1 -32 19 -6 13 -9 29 -6 34 4 5 3 14 -1 20 -5 8 -13 4 -24 -11 l-18 -23
-11 21 c-6 12 -21 22 -31 22 -28 0 -25 -18 5 -32 14 -6 25 -15 25 -20 0 -5 18
-28 40 -52 23 -24 37 -47 31 -50 -14 -9 -61 12 -61 27 0 11 -39 37 -55 37 -16
0 0 -31 30 -60 37 -36 45 -60 20 -60 -8 0 -22 15 -31 33 -9 17 -21 35 -26 38
-5 3 -12 19 -17 35 -5 22 -15 30 -37 34 -21 4 -33 15 -45 39 -15 33 -44 61
-61 61 -18 0 -6 -20 22 -37 33 -19 43 -50 13 -38 -10 4 -27 8 -38 10 -11 1
-23 3 -27 4 -4 0 -15 10 -26 21 -10 10 -46 26 -81 34 -35 8 -69 20 -74 25 -6
6 -18 11 -26 11 -10 0 -8 -7 9 -25 13 -14 29 -25 35 -25 7 0 23 -8 36 -19 13
-10 41 -21 62 -25 21 -4 37 -13 37 -20 0 -15 74 -86 89 -86 5 0 11 6 13 12 4
10 10 10 31 1 32 -15 174 -149 182 -171 2 -10 36 -30 74 -45 69 -29 82 -32
156 -43 22 -3 59 -15 83 -27 38 -20 42 -25 40 -55 -2 -33 -23 -61 -35 -48 -4
4 -1 11 7 16 11 7 7 15 -20 40 -18 17 -39 29 -47 25 -8 -3 -32 -5 -52 -5 -27
0 -46 -8 -65 -25 -15 -14 -34 -25 -42 -25 -11 0 -12 -4 -4 -19 10 -20 4 -51
-10 -51 -15 0 -70 51 -70 65 0 7 -7 18 -16 26 -8 7 -13 21 -10 32 6 24 -35 67
-64 67 -12 0 -30 5 -42 11 -17 9 -19 8 -16 -8 2 -10 18 -23 38 -29 34 -11 60
-44 72 -91 5 -17 2 -23 -9 -23 -14 0 -14 -2 1 -19 9 -10 14 -25 11 -33 -3 -8
6 -25 20 -38 14 -13 25 -32 25 -42 0 -22 0 -22 36 -2 64 34 89 52 86 63 -3 14
4 14 29 0 17 -9 18 -13 8 -26 -15 -17 -106 -63 -125 -63 -7 0 -30 -11 -50 -25
-20 -14 -44 -25 -54 -25 -9 0 -44 29 -78 65 -35 36 -66 65 -71 65 -4 0 -16 17
-27 38 -10 20 -31 53 -46 72 -30 39 -128 207 -128 219 0 5 -12 26 -26 47 -15
21 -42 68 -61 104 -19 36 -52 91 -74 122 -21 32 -39 61 -39 64 0 9 -109 192
-136 229 -12 17 -25 41 -29 55 -4 13 -23 47 -41 73 -19 27 -34 55 -34 63 0 22
24 16 35 -8 6 -13 19 -23 30 -23 16 0 20 6 18 28 -1 15 0 27 3 27 3 0 18 -15
34 -34 37 -41 69 -51 106 -31 40 21 41 20 62 -27 14 -31 34 -52 73 -76 30 -19
78 -49 107 -67 40 -25 69 -35 120 -40 37 -4 85 -13 107 -21 22 -7 50 -14 63
-14 15 0 22 -6 22 -20 0 -27 28 -15 36 16 9 34 -12 54 -56 54 -89 0 -252 126
-330 253 -35 59 -53 67 -58 29 -4 -27 -28 -29 -41 -4 -10 19 -21 19 -178 -2
l-51 -8 1 49 c2 37 -2 48 -13 48 -9 0 -16 -11 -18 -27 -2 -16 -8 -28 -13 -28
-13 0 -59 50 -59 63 0 6 -2 8 -5 5 -4 -3 3 -22 15 -42 11 -20 20 -41 20 -46 0
-13 -63 -1 -73 14 -33 49 -115 191 -135 236 -14 30 -36 69 -49 86 -13 17 -23
34 -23 38 0 4 -18 31 -40 61 -22 30 -40 58 -40 62 0 4 17 19 38 32 20 13 49
32 64 43 35 23 77 24 85 1 10 -27 86 -112 94 -107 16 9 -14 64 -49 90 -49 37
-50 38 -41 92 8 55 -4 76 -40 69 -13 -3 -34 0 -45 6 -12 5 -28 13 -36 17 -8 4
-16 19 -18 34 -3 22 -8 26 -30 24 -19 -2 -27 2 -30 16 -9 42 35 44 58 1 10
-18 24 -24 65 -30 33 -4 60 -13 71 -26 32 -35 54 -19 54 41 0 17 6 30 18 34 9
3 25 11 35 18 15 11 20 10 35 -8 20 -25 90 -60 100 -50 3 4 -10 24 -30 44 -20
20 -45 46 -55 58 -61 70 -57 60 -34 90 21 27 20 44 -3 44 -8 0 -19 6 -25 14
-7 8 -27 17 -46 20 -38 7 -50 19 -41 41 9 24 34 18 83 -20z m-4281 16 c5 -4
34 -16 64 -26 79 -25 85 -29 88 -59 3 -19 -1 -26 -15 -28 -62 -5 -72 -4 -77 9
-5 11 -11 11 -37 -2 -19 -10 -29 -22 -25 -31 12 -32 -14 -11 -38 30 -31 54
-31 56 -5 90 22 28 30 31 45 17z m4145 -56 c29 -25 56 -45 61 -45 4 0 8 -7 8
-15 0 -23 -21 -18 -67 18 -23 17 -54 40 -68 50 -25 18 -26 37 0 37 7 0 37 -20
66 -45z m-166 -15 c-3 -5 -11 -10 -16 -10 -6 0 -7 5 -4 10 3 6 11 10 16 10 6
0 7 -4 4 -10z m-82 -35 c-17 -13 -17 -15 0 -32 16 -17 17 -17 17 1 0 13 5 16
18 11 20 -8 20 -8 50 -6 14 1 26 10 32 26 5 14 13 25 17 24 21 -2 98 -57 98
-70 0 -22 -32 -22 -52 0 -21 25 -33 27 -33 6 0 -8 -12 -18 -27 -21 -42 -10
-44 -13 -27 -40 21 -30 13 -40 -18 -23 -12 7 -27 12 -32 11 -23 -7 -46 14 -66
59 -12 28 -20 52 -18 52 2 1 12 7 23 13 26 15 41 6 18 -11z m-5233 -31 c0 -38
-18 -64 -45 -64 -37 0 -38 14 -2 53 39 43 47 45 47 11z m5164 -10 c5 -14 4
-15 -9 -4 -17 14 -19 20 -6 20 5 0 12 -7 15 -16z m2527 -1 c32 -19 36 -28 15
-40 -8 -4 -16 -19 -18 -33 -3 -22 1 -25 32 -28 19 -2 38 -9 42 -15 13 -21 9
-45 -9 -49 -9 -2 -21 -18 -28 -37 l-11 -33 -38 46 c-33 41 -35 46 -17 46 12 0
21 4 21 8 0 17 -13 21 -34 10 -11 -6 -28 -14 -36 -18 -9 -5 -14 -19 -13 -34 1
-14 -2 -26 -8 -26 -5 0 -9 7 -9 15 0 7 -7 18 -17 23 -23 13 -9 42 20 42 25 0
77 21 77 31 0 4 -7 12 -16 20 -12 10 -20 10 -35 1 -10 -7 -28 -12 -38 -12 -11
0 -23 -4 -26 -10 -10 -16 -45 -12 -52 6 -10 26 12 36 82 39 81 4 98 16 64 44
l-24 20 23 1 c13 0 37 -8 53 -17z m-2581 -2 c0 -4 11 -20 25 -35 14 -15 35
-46 48 -69 13 -23 32 -47 43 -52 10 -6 26 -14 34 -20 8 -5 22 -8 30 -7 12 2
15 -9 17 -49 1 -37 -2 -48 -10 -40 -6 6 -23 11 -37 11 -19 0 -31 8 -43 33 -10
17 -44 75 -77 127 -33 52 -60 98 -60 103 0 4 7 7 15 7 8 0 15 -4 15 -9z m333
-46 c22 -21 47 -35 62 -35 28 0 32 -17 11 -45 -14 -19 -15 -19 -33 -2 -11 9
-27 17 -36 17 -9 0 -17 6 -17 14 0 7 -9 25 -20 39 -21 26 -26 47 -12 47 4 0
25 -16 45 -35z m-259 9 c3 -8 2 -12 -4 -9 -6 3 -10 10 -10 16 0 14 7 11 14 -7z
m363 1 c1 -5 -2 -17 -7 -25 -9 -13 -11 -13 -20 0 -15 23 -12 42 7 38 9 -2 18
-7 20 -13z m-4537 -39 c6 -19 17 -37 24 -39 8 -3 22 -27 32 -54 10 -26 37 -75
61 -108 24 -32 43 -63 43 -67 0 -5 11 -13 24 -18 28 -10 48 -41 38 -56 -11
-14 -89 -54 -107 -54 -9 0 -31 7 -50 14 -33 14 -34 17 -23 41 8 19 17 25 31
21 14 -3 17 -1 12 12 -4 9 -10 43 -15 74 -7 47 -42 118 -58 118 -3 0 -2 -15 1
-34 6 -37 -9 -60 -36 -54 -21 4 -60 -42 -81 -96 -20 -51 -39 -56 -44 -10 -2
16 -8 33 -13 39 -5 5 -9 17 -9 26 0 16 -11 17 -92 16 l-93 -2 -3 27 c-4 33 11
42 97 59 48 9 72 20 93 41 23 23 35 28 60 24 41 -6 95 28 77 50 -12 15 -4 64
10 64 5 0 15 -15 21 -34z m-994 -42 c10 -41 -7 -78 -37 -82 -33 -4 -42 17 -23
49 7 13 17 32 20 42 9 26 33 21 40 -9z m2253 -54 c1 -13 0 -13 -9 0 -5 8 -9
24 -9 35 l0 20 9 -20 c5 -11 9 -27 9 -35z m5251 -10 c0 -13 -7 -20 -19 -20
-11 0 -21 -4 -23 -9 -5 -13 -128 -25 -128 -13 0 14 30 43 39 38 4 -3 25 1 47
9 57 21 84 19 84 -5z m-5182 -7 c5 -18 -23 -16 -39 3 -11 14 -10 15 11 12 13
-1 25 -9 28 -15z m-214 -9 c20 -8 21 -54 2 -54 -20 0 -39 27 -32 45 6 17 8 17
30 9z m201 -106 c15 -13 30 -16 61 -12 50 7 63 -7 35 -38 -23 -24 -28 -86 -11
-119 8 -14 7 -27 -5 -48 -8 -17 -15 -48 -15 -69 0 -26 -5 -42 -15 -46 -8 -3
-22 -22 -32 -43 -10 -21 -32 -47 -49 -58 -22 -14 -36 -34 -45 -65 -12 -37 -20
-46 -46 -54 -21 -6 -37 -19 -47 -40 -21 -44 -143 -106 -209 -106 -101 0 -148
-47 -92 -92 30 -24 32 -44 5 -51 -37 -10 -60 3 -60 34 0 29 -19 43 -82 63 -16
5 -16 7 -1 34 23 40 12 58 -46 72 -44 10 -55 10 -76 -4 -31 -20 -31 -24 0 -70
14 -20 25 -39 25 -42 0 -9 -56 9 -105 33 -27 14 -77 36 -110 48 -88 34 -119
54 -141 94 -14 25 -36 43 -79 64 -33 15 -71 34 -85 40 -28 14 -41 57 -17 57 8
0 32 -14 53 -31 46 -37 85 -36 167 5 29 14 61 28 71 31 16 5 14 10 -20 39 -33
29 -42 32 -69 25 -16 -5 -47 -9 -67 -9 -31 0 -38 4 -38 19 0 29 -38 51 -87 51
-47 0 -52 7 -25 31 9 9 27 28 39 42 19 23 26 25 49 17 29 -11 84 -10 84 2 0 4
-9 8 -20 8 -25 0 -25 8 -1 38 25 28 30 28 66 -9 17 -17 44 -37 62 -44 17 -7
36 -23 43 -34 6 -12 18 -21 26 -21 17 0 68 -26 95 -48 9 -7 27 -15 40 -16 13
-2 31 -6 39 -9 8 -3 34 -8 58 -10 24 -3 51 -12 61 -21 15 -13 20 -14 37 -2 11
8 27 10 39 6 12 -5 33 -1 55 10 19 9 65 25 101 35 57 15 74 25 118 71 105 108
181 234 181 299 0 17 5 36 12 43 9 9 16 1 32 -36 11 -26 30 -55 41 -64z
m-1845 73 c0 -9 -24 -21 -41 -21 -16 0 -10 18 9 23 28 8 32 7 32 -2z m-379
-32 c-9 -22 -10 -22 -10 -3 -1 11 2 24 6 27 12 12 14 0 4 -24z m-61 -14 c0 -8
-4 -15 -9 -15 -13 0 -22 16 -14 24 11 11 23 6 23 -9z m1538 -7 c16 -16 15 -38
-2 -38 -13 0 -26 20 -26 41 0 13 14 11 28 -3z m3732 -68 c-1 -9 -10 -4 -25 15
-14 17 -25 37 -25 45 1 9 10 4 25 -15 14 -16 25 -37 25 -45z m143 56 c3 -8 -1
-22 -9 -33 -14 -17 -14 -17 -29 1 -11 14 -12 23 -4 33 15 17 35 17 42 -1z
m-78 -21 c0 -14 -8 -21 -27 -23 -31 -4 -33 0 -17 29 13 25 44 21 44 -6z
m-5305 -40 c0 -31 -19 -72 -37 -79 -8 -4 -18 5 -24 22 -10 25 -11 26 -24 9
-15 -21 -28 -8 -19 20 10 28 46 53 77 53 22 0 27 -4 27 -25z m1981 -18 c-16
-16 -26 0 -10 19 9 11 15 12 17 4 2 -6 -1 -17 -7 -23z m5569 3 c39 -79 39 -81
-12 -85 -17 -1 -34 -7 -36 -14 -2 -6 -17 -11 -34 -11 l-31 0 34 23 c36 24 51
57 25 57 -17 0 -39 34 -29 44 13 12 76 1 83 -14z m-1065 0 c3 -5 -1 -10 -9
-10 -8 0 -18 5 -21 10 -3 6 1 10 9 10 8 0 18 -4 21 -10z m1360 -16 c0 -13 -8
-20 -27 -22 -32 -4 -35 4 -11 30 20 22 38 19 38 -8z m-8090 -49 c-20 -40 -25
-62 -21 -82 20 -79 19 -82 -24 -153 -23 -39 -44 -70 -46 -70 -5 0 6 97 17 154
9 48 62 179 82 204 23 28 19 -1 -8 -53z m358 37 c3 -4 -6 -21 -19 -37 -19 -24
-24 -26 -24 -12 0 37 30 71 43 49z m7245 -11 c3 -8 -1 -12 -9 -9 -7 2 -15 10
-17 17 -3 8 1 12 9 9 7 -2 15 -10 17 -17z m-5443 -47 c-19 -30 -150 -94 -190
-94 -22 0 -26 4 -23 22 3 19 12 24 68 33 75 13 96 23 129 61 29 34 41 16 16
-22z m-456 22 c16 -19 -4 -58 -27 -54 -21 4 -28 34 -12 53 16 19 24 19 39 1z
m5581 -6 c61 -17 74 -64 25 -90 -20 -11 -27 -11 -41 1 -21 17 -47 77 -39 89 8
12 11 12 55 0z m722 -57 c24 -22 23 -39 -4 -57 -33 -21 -78 -22 -115 -3 -18
10 -33 19 -33 21 0 3 -3 11 -6 19 -4 11 4 15 37 15 23 1 47 6 52 11 16 16 48
13 69 -6z m-6242 -7 c0 -15 -18 -31 -26 -23 -7 7 7 37 17 37 5 0 9 -6 9 -14z
m73 -3 c11 -10 -13 -33 -34 -33 -18 0 -26 20 -12 33 8 9 38 9 46 0z m67 -37
c0 -8 -5 -18 -10 -21 -17 -11 -40 3 -34 20 8 19 44 20 44 1z m-813 -42 c-1 -2
-13 -1 -26 3 -16 4 -19 8 -10 14 12 7 45 -9 36 -17z m92 -8 c-3 -3 -16 -2 -29
1 -22 6 -22 7 -4 14 18 6 43 -5 33 -15z m6151 -46 c0 -5 -2 -10 -4 -10 -3 0
-8 5 -11 10 -3 6 -1 10 4 10 6 0 11 -4 11 -10z m103 -40 c6 -22 62 -50 102
-50 18 0 28 -7 35 -25 9 -24 4 -55 -9 -55 -12 0 -105 50 -123 66 -16 16 -18
15 -24 -1 -4 -10 -2 -26 4 -36 23 -36 5 -40 -39 -8 -16 11 -45 25 -64 30 -48
14 -45 39 8 66 74 39 102 42 110 13z m657 -30 c0 -5 -9 -10 -19 -10 -11 0 -23
5 -26 10 -4 6 5 10 19 10 14 0 26 -4 26 -10z m-8130 -170 c0 -16 5 -30 10 -30
6 0 10 8 10 17 0 10 3 13 9 8 14 -15 21 -85 27 -247 7 -173 -5 -245 -46 -291
l-27 -31 -16 31 c-25 47 -37 145 -37 293 0 120 16 239 36 271 13 21 34 8 34
-21z m6320 -205 c0 -19 -30 -19 -56 0 -18 13 -17 14 19 15 26 0 37 -4 37 -15z
m54 -54 c3 -5 0 -11 -8 -14 -15 -6 -26 1 -26 15 0 11 27 10 34 -1z m-3522
-154 c-26 -46 -28 -56 -17 -68 21 -21 175 -366 175 -391 l0 -21 -22 20 c-13
11 -50 28 -83 37 -105 30 -150 50 -160 74 -5 12 -30 32 -53 44 -24 11 -54 31
-67 44 -13 13 -35 24 -48 24 -16 0 -34 12 -51 35 -15 19 -34 35 -42 35 -42 0
26 59 76 65 17 2 34 7 39 10 8 5 52 11 132 19 55 6 88 27 98 63 10 35 40 77
49 69 2 -3 -9 -29 -26 -59z m-968 -167 c-9 -9 -26 -12 -141 -29 -51 -7 -67 -1
-41 15 14 9 75 16 122 15 16 0 36 4 45 9 19 10 29 4 15 -10z m76 16 c0 -3 -4
-8 -10 -11 -5 -3 -10 -1 -10 4 0 6 5 11 10 11 6 0 10 -2 10 -4z m-473 -72 c-3
-3 -12 -4 -19 -1 -8 3 -5 6 6 6 11 1 17 -2 13 -5z m5311 -171 c-2 -11 -13 -17
-36 -17 -17 0 -31 5 -29 10 1 5 5 8 10 7 4 -2 7 2 7 7 0 6 12 10 26 10 18 0
25 -5 22 -17z m612 -23 c0 -5 -4 -10 -9 -10 -6 0 -13 5 -16 10 -3 6 1 10 9 10
9 0 16 -4 16 -10z m-424 -28 c-4 -3 -14 2 -24 12 -16 18 -16 18 6 6 13 -6 21
-14 18 -18z m23 -270 c8 -15 4 -22 -22 -37 -18 -10 -35 -23 -38 -28 -4 -5 -15
-7 -24 -5 -16 3 -17 5 -4 18 8 8 20 27 26 43 14 31 47 36 62 9z m-5130 -24
l62 -32 70 18 c95 24 147 11 210 -55 15 -15 46 -33 70 -39 42 -12 146 -9 218
6 32 6 34 6 27 -19 -7 -30 12 -54 56 -69 44 -16 36 -44 -20 -72 -40 -20 -55
-23 -87 -16 -44 10 -51 7 -127 -42 -61 -41 -155 -79 -203 -85 -123 -13 -225
11 -225 53 0 38 54 91 113 110 62 20 77 31 77 55 0 12 -10 21 -27 25 -16 3
-41 9 -58 13 -22 6 -46 0 -92 -20 -33 -16 -74 -28 -90 -27 -15 1 -39 -2 -53
-6 -24 -8 -24 -8 -5 7 25 19 13 34 -17 20 -18 -8 -27 -6 -42 8 -15 15 -17 26
-12 60 l7 42 -35 -6 c-48 -8 -72 1 -85 30 -15 33 -9 38 59 56 92 24 139 21
209 -15z m5021 2 c0 -5 -4 -10 -9 -10 -6 0 -13 5 -16 10 -3 6 1 10 9 10 9 0
16 -4 16 -10z m-150 -46 c0 -8 -4 -12 -10 -9 -5 3 -10 10 -10 16 0 5 5 9 10 9
6 0 10 -7 10 -16z m-5160 -65 c0 -9 -71 -38 -100 -41 -36 -4 -39 27 -3 40 29
11 103 11 103 1z m-20 -89 c0 -5 -5 -10 -11 -10 -5 0 -7 5 -4 10 3 6 8 10 11
10 2 0 4 -4 4 -10z m45 -10 c-3 -5 -11 -10 -16 -10 -6 0 -7 5 -4 10 3 6 11 10
16 10 6 0 7 -4 4 -10z m120 0 c-3 -5 -14 -10 -23 -10 -15 0 -15 2 -2 10 20 13
33 13 25 0z m866 -151 c19 -6 40 -13 48 -15 12 -4 12 -8 -2 -21 -15 -15 -21
-15 -52 -4 -20 7 -50 10 -68 6 l-32 -6 28 25 c32 30 32 30 78 15z m359 -335
c0 -6 -9 -23 -21 -38 -11 -14 -16 -26 -10 -26 21 0 11 -20 -19 -39 -21 -12
-60 -20 -126 -24 -104 -7 -122 -4 -103 20 23 27 69 44 125 45 47 1 58 5 72 26
13 20 13 25 1 33 -12 8 -11 12 4 23 14 11 24 11 47 3 17 -6 30 -17 30 -23z
m147 -37 c-6 -18 24 -45 44 -40 38 10 19 -24 -20 -35 -51 -16 -66 -15 -81 3
-10 12 -8 22 14 55 15 23 31 38 37 34 5 -3 8 -11 6 -17z m-1447 -31 c0 -3 -4
-8 -10 -11 -5 -3 -10 -1 -10 4 0 6 5 11 10 11 6 0 10 -2 10 -4z m1555 -26 c-3
-5 -11 -10 -16 -10 -6 0 -7 5 -4 10 3 6 11 10 16 10 6 0 7 -4 4 -10z m-330
-110 c-3 -5 -10 -10 -16 -10 -5 0 -9 5 -9 10 0 6 7 10 16 10 8 0 12 -4 9 -10z
m167 -60 c22 -16 50 -30 60 -30 11 0 18 -5 16 -12 -5 -15 -78 -20 -78 -5 0 5
-7 7 -15 3 -8 -3 -15 -1 -15 5 0 5 -11 20 -25 33 -25 23 -24 36 2 36 7 0 32
-13 55 -30z m-152 -10 c0 -5 -5 -10 -11 -10 -5 0 -7 5 -4 10 3 6 8 10 11 10 2
0 4 -4 4 -10z"/>
<path d="M5486 9023 c-1 -2 -11 -4 -22 -6 -100 -18 -262 -87 -272 -115 -7 -23
157 -6 246 24 102 35 174 72 169 87 -3 10 -112 19 -121 10z"/>
<path d="M4215 8092 c-45 -28 -57 -47 -60 -96 -5 -63 -20 -87 -53 -84 -24 3
-27 0 -27 -26 0 -42 23 -52 79 -36 83 23 176 130 176 203 0 52 -60 72 -115 39z
m-40 -152 c3 -5 1 -10 -4 -10 -6 0 -11 5 -11 10 0 6 2 10 4 10 3 0 8 -4 11
-10z"/>
<path d="M4374 7914 c-82 -43 -82 -42 -100 -166 -5 -34 -9 -37 -30 -32 -31 8
-52 -32 -34 -65 27 -52 98 -45 178 18 53 43 131 150 133 185 5 86 -53 110
-147 60z"/>
<path d="M5797 6801 c-41 -20 -62 -41 -99 -96 -101 -150 -155 -411 -112 -538
19 -55 26 -62 53 -45 23 14 47 -1 62 -40 9 -22 14 -24 54 -20 81 10 149 80
204 211 51 122 74 223 75 322 1 109 -18 162 -73 199 -54 37 -102 39 -164 7z"/>
<path d="M8725 6370 c-9 -14 13 -58 34 -69 26 -15 31 -14 31 4 0 35 -52 87
-65 65z"/>
<path d="M8540 6275 c0 -10 10 -15 26 -15 22 0 25 2 14 15 -7 8 -19 15 -26 15
-8 0 -14 -7 -14 -15z"/>
<path d="M8612 5990 c-48 -13 -59 -19 -50 -28 7 -7 25 -12 40 -12 18 0 28 -5
28 -15 0 -18 31 -20 48 -3 13 13 16 48 4 63 -4 7 -28 5 -70 -5z"/>
<path d="M4475 5421 c-3 -6 -13 -34 -21 -62 -14 -46 -14 -53 -1 -67 9 -8 22
-12 31 -9 18 7 39 77 34 115 -3 27 -31 42 -43 23z"/>
<path d="M4608 5366 c-9 -12 -20 -39 -23 -59 -6 -29 -3 -37 13 -46 31 -17 38
-14 40 19 1 16 7 41 12 55 6 15 10 33 10 41 0 22 -33 16 -52 -10z"/>
<path d="M5292 5187 c-6 -7 -29 -69 -51 -137 -22 -69 -57 -170 -77 -225 -20
-55 -37 -113 -38 -130 -1 -28 3 -31 64 -52 46 -15 82 -21 125 -18 33 2 79 4
102 4 40 1 73 20 73 43 0 5 -8 7 -17 4 -9 -4 -67 -9 -128 -12 -97 -4 -115 -2
-134 13 l-21 18 81 230 c51 146 78 238 74 252 -6 25 -36 31 -53 10z"/>
<path d="M5447 5146 c-18 -26 -157 -386 -157 -404 0 -7 11 -12 24 -12 25 0 31
13 121 280 19 58 40 113 45 123 11 18 6 37 -9 37 -5 0 -16 -11 -24 -24z"/>
<path d="M6440 5062 c0 -6 10 -18 22 -26 38 -27 79 -16 45 12 -19 16 -67 26
-67 14z"/>
<path d="M6520 4701 c0 -5 5 -13 10 -16 6 -3 10 -2 10 4 0 5 -4 13 -10 16 -5
3 -10 2 -10 -4z"/>
<path d="M6480 4685 c0 -8 7 -15 15 -15 8 0 15 4 15 9 0 5 -7 11 -15 15 -9 3
-15 0 -15 -9z"/>
<path d="M6405 4667 c10 -15 20 -25 23 -22 3 3 -5 16 -17 28 l-23 22 17 -28z"/>
<path d="M6440 4670 c0 -5 7 -10 15 -10 8 0 15 5 15 10 0 6 -7 10 -15 10 -8 0
-15 -4 -15 -10z"/>
<path d="M6380 4640 c0 -5 5 -10 11 -10 5 0 7 5 4 10 -3 6 -8 10 -11 10 -2 0
-4 -4 -4 -10z"/>
<path d="M6138 4611 c-24 -15 -25 -18 -10 -27 19 -11 78 -11 76 0 -11 52 -21
56 -66 27z"/>
<path d="M6075 4580 c3 -5 10 -10 16 -10 5 0 9 5 9 10 0 6 -7 10 -16 10 -8 0
-12 -4 -9 -10z"/>
<path d="M6030 4570 c0 -5 7 -10 15 -10 8 0 15 5 15 10 0 6 -7 10 -15 10 -8 0
-15 -4 -15 -10z"/>
<path d="M6045 4510 c-3 -5 1 -10 10 -10 9 0 13 5 10 10 -3 6 -8 10 -10 10 -2
0 -7 -4 -10 -10z"/>
<path d="M5998 4488 c9 -9 15 -9 24 0 9 9 7 12 -12 12 -19 0 -21 -3 -12 -12z"/>
<path d="M4987 4283 c-12 -12 -7 -20 18 -31 55 -25 86 -8 43 22 -24 17 -50 21
-61 9z"/>
<path d="M7865 5525 c-5 -2 -23 -6 -39 -10 -30 -6 -102 -75 -126 -119 -18 -35
0 -94 44 -141 30 -32 38 -35 89 -35 82 0 134 24 194 89 44 47 53 62 53 94 0
52 -13 72 -64 102 -39 23 -113 33 -151 20z m-117 -147 c5 -7 6 -22 2 -33 -7
-19 -7 -19 -18 2 -21 38 -8 61 16 31z m252 -55 c-1 -18 -18 -35 -24 -24 -4 6
-4 16 -1 21 7 12 25 13 25 3z"/>
<path d="M7528 5170 c-69 -21 -158 -113 -158 -163 0 -8 -9 -17 -20 -20 -43
-11 -18 -92 43 -139 99 -77 221 -74 301 7 84 85 88 93 84 160 -3 52 -9 69 -38
106 -19 24 -39 47 -45 51 -13 10 -133 8 -167 -2z"/>
<path d="M1387 4263 c-15 -14 -6 -40 18 -53 24 -13 28 -12 49 11 23 25 23 26
5 37 -20 13 -62 16 -72 5z"/>
<path d="M8532 4519 c2 -7 10 -15 17 -17 8 -3 12 1 9 9 -2 7 -10 15 -17 17 -8
3 -12 -1 -9 -9z"/>
<path d="M2140 4210 c0 -6 -9 -23 -20 -37 -11 -15 -19 -28 -17 -30 8 -8 37 10
51 32 13 20 13 25 1 35 -12 10 -15 10 -15 0z"/>
<path d="M6620 4051 c0 -12 29 -35 36 -28 11 10 -5 37 -21 37 -8 0 -15 -4 -15
-9z"/>
<path d="M6740 4042 c0 -5 7 -13 16 -16 10 -4 14 -1 12 6 -5 15 -28 23 -28 10z"/>
<path d="M6346 3967 c3 -8 42 -36 87 -62 45 -26 104 -62 132 -81 50 -34 89
-48 47 -16 -12 9 -44 33 -70 53 -26 20 -63 44 -82 54 -19 9 -44 25 -55 35 -28
25 -67 36 -59 17z"/>
<path d="M6678 3879 c21 -25 72 -53 72 -40 0 6 -10 16 -22 22 -13 7 -27 18
-31 25 -4 8 -14 14 -22 14 -12 0 -11 -4 3 -21z"/>
<path d="M6275 3860 c3 -5 8 -10 11 -10 2 0 4 5 4 10 0 6 -5 10 -11 10 -5 0
-7 -4 -4 -10z"/>
<path d="M6830 3843 c0 -5 6 -18 14 -29 17 -22 35 -11 20 13 -12 19 -34 29
-34 16z"/>
<path d="M7082 3798 c5 -15 28 -23 28 -10 0 5 -7 13 -16 16 -10 4 -14 1 -12
-6z"/>
<path d="M6660 3775 c7 -9 15 -13 17 -11 7 7 -7 26 -19 26 -6 0 -6 -6 2 -15z"/>
<path d="M7020 3775 c1 -6 10 -26 21 -45 l20 -35 -6 30 c-6 28 -35 71 -35 50z"/>
<path d="M7155 3750 c-6 -10 0 -13 40 -23 11 -3 29 -8 40 -12 36 -14 3 13 -37
29 -23 10 -39 12 -43 6z"/>
<path d="M6390 3740 c0 -6 18 -30 41 -55 43 -47 103 -75 121 -57 17 17 -1 32
-37 32 -27 0 -41 8 -73 45 -40 45 -52 53 -52 35z"/>
<path d="M6730 3741 c0 -12 45 -40 91 -57 29 -10 39 -10 37 -2 -5 14 -128 71
-128 59z"/>
<path d="M6065 3730 c-4 -6 7 -25 24 -42 17 -17 30 -41 29 -52 -1 -12 6 -33
16 -48 14 -22 26 -28 52 -28 19 0 34 -4 34 -10 0 -5 5 -10 11 -10 6 0 25 -11
41 -25 16 -14 34 -22 40 -19 15 10 -29 50 -88 80 -34 17 -54 34 -54 45 0 9
-16 31 -35 48 -19 17 -35 34 -35 39 0 17 -28 34 -35 22z"/>
<path d="M7270 3675 c7 -8 20 -15 29 -15 13 1 13 3 -3 15 -26 19 -42 19 -26 0z"/>
<path d="M7180 3654 c0 -4 10 -16 23 -28 12 -11 31 -34 43 -50 11 -16 26 -27
32 -25 14 5 -63 102 -84 107 -8 2 -14 0 -14 -4z"/>
<path d="M6270 3634 c0 -11 34 -64 41 -64 4 0 30 -18 59 -41 l51 -40 -24 38
c-13 21 -33 39 -43 41 -11 1 -30 18 -43 37 -21 31 -41 45 -41 29z"/>
<path d="M6670 3558 c-21 -34 -28 -94 -10 -83 6 3 10 13 10 20 0 8 14 30 30
48 35 41 37 47 10 47 -12 0 -28 -13 -40 -32z"/>
<path d="M7477 3584 c-3 -4 8 -24 25 -45 36 -45 48 -41 41 14 -5 32 -8 37 -32
37 -15 0 -30 -3 -34 -6z"/>
<path d="M6602 3569 c2 -7 10 -15 17 -17 8 -3 12 1 9 9 -2 7 -10 15 -17 17 -8
3 -12 -1 -9 -9z"/>
<path d="M6512 3545 c12 -27 28 -34 28 -12 0 14 -20 37 -32 37 -4 0 -2 -11 4
-25z"/>
<path d="M7340 3562 c0 -5 9 -17 20 -27 22 -20 26 -14 10 16 -11 19 -30 26
-30 11z"/>
<path d="M6800 3483 c-44 -17 -31 -56 16 -47 25 5 43 0 71 -17 59 -35 131 -98
138 -119 4 -11 13 -20 21 -20 43 0 -87 145 -165 185 -53 26 -57 27 -81 18z"/>
<path d="M7395 3480 c3 -5 8 -10 11 -10 2 0 4 5 4 10 0 6 -5 10 -11 10 -5 0
-7 -4 -4 -10z"/>
<path d="M7164 3409 c-9 -15 7 -30 26 -24 22 7 38 -31 21 -48 -11 -11 2 -45
23 -59 19 -13 46 -9 46 8 0 10 7 14 22 12 17 -2 23 4 30 31 13 47 6 58 -44 66
-24 4 -47 10 -53 13 -16 10 -65 11 -71 1z"/>
<path d="M7441 3316 c-9 -11 -19 -13 -37 -5 -33 12 -34 12 -34 -4 0 -8 9 -22
20 -32 14 -13 18 -25 13 -49 -3 -17 -10 -36 -15 -42 -10 -13 0 -23 55 -53 29
-16 42 -19 57 -11 11 6 20 15 20 21 0 6 14 8 33 5 97 -16 146 -15 183 4 31 16
51 19 108 14 l71 -6 -35 23 c-19 12 -47 30 -61 39 -63 44 -133 72 -193 80 -35
4 -69 11 -75 15 -25 15 -98 16 -110 1z"/>
<path d="M6820 3281 c0 -17 47 -76 60 -76 19 0 25 39 8 51 -23 17 -68 34 -68
25z"/>
<path d="M6925 3241 c-8 -15 3 -31 21 -31 9 0 14 7 12 17 -4 20 -24 28 -33 14z"/>
<path d="M7030 3229 c0 -12 49 -43 57 -36 3 3 3 12 0 20 -6 16 -57 30 -57 16z"/>
<path d="M6388 3162 c4 -10 26 -41 50 -67 40 -46 43 -47 57 -29 16 21 13 24
-72 85 -34 24 -41 26 -35 11z"/>
<path d="M6922 3164 c2 -9 22 -30 46 -47 32 -24 53 -31 90 -31 43 -1 47 1 51
24 3 24 2 24 -16 8 -19 -17 -21 -17 -48 12 -40 42 -130 67 -123 34z"/>
<path d="M7210 3144 c1 -26 24 -54 44 -54 27 0 15 28 -26 59 -16 12 -18 11
-18 -5z"/>
<path d="M6571 3097 c12 -23 30 -48 40 -55 20 -14 26 -42 9 -42 -5 0 -10 -7
-10 -15 0 -12 -4 -13 -25 -3 -18 8 -25 19 -25 40 0 18 -5 28 -15 28 -18 0 -6
-35 27 -80 25 -35 52 -38 88 -11 24 19 24 20 7 56 -9 19 -17 44 -17 54 0 18
-39 47 -83 64 -15 6 -15 2 4 -36z"/>
<path d="M7232 3043 c2 -11 14 -19 28 -20 14 -2 52 -6 84 -11 68 -10 109 -5
103 12 -2 6 -17 12 -33 13 -16 1 -51 6 -78 12 -34 8 -53 8 -62 0 -8 -7 -14 -7
-19 1 -10 16 -27 12 -23 -7z"/>
<path d="M7171 2785 c0 -5 6 -19 14 -29 8 -11 15 -15 15 -10 0 6 -7 19 -15 30
-8 10 -14 15 -14 9z"/>
<path d="M7870 2711 c0 -38 55 -85 71 -60 8 14 -7 39 -24 39 -6 0 -19 7 -29
17 -12 10 -18 12 -18 4z"/>
<path d="M7244 2696 c-4 -10 -2 -22 4 -28 8 -8 13 -7 18 6 4 10 2 22 -4 28 -8
8 -13 7 -18 -6z"/>
<path d="M7410 2667 c0 -8 9 -22 20 -32 11 -10 20 -23 20 -29 1 -15 70 -63
104 -72 l28 -7 -21 42 c-24 45 -29 48 -45 25 -15 -19 -46 -8 -46 16 0 17 -7
26 -45 58 -12 10 -15 10 -15 -1z"/>
<path d="M6826 2662 c-5 -8 -17 -12 -27 -9 -11 3 -19 0 -19 -7 0 -15 69 -86
84 -86 6 0 29 -9 51 -20 43 -22 50 -21 40 9 -4 13 -26 30 -54 42 -38 16 -50
27 -58 52 -6 23 -11 28 -17 19z"/>
<path d="M7160 2385 c0 -15 38 -41 47 -32 2 3 0 15 -7 26 -12 24 -40 28 -40 6z"/>
<path d="M7164 2309 c-3 -6 -1 -16 5 -22 9 -9 14 -8 21 3 5 8 10 18 10 23 0
11 -28 8 -36 -4z"/>
<path d="M2890 3989 c0 -5 5 -7 10 -4 6 3 10 8 10 11 0 2 -4 4 -10 4 -5 0 -10
-5 -10 -11z"/>
<path d="M2080 3515 c7 -8 21 -15 31 -15 11 0 19 7 19 15 0 10 -10 15 -31 15
-27 0 -30 -2 -19 -15z"/>
<path d="M416 3324 c-3 -9 -6 -31 -6 -50 0 -41 20 -46 40 -9 11 20 10 28 -4
50 -19 29 -22 30 -30 9z"/>
<path d="M2725 1965 c-5 -2 -28 -6 -50 -10 -36 -7 -38 -8 -17 -16 13 -5 20
-13 17 -19 -9 -14 10 -12 51 5 41 17 40 54 -1 40z"/>
<path d="M2455 1940 c-3 -5 1 -10 9 -10 8 0 18 5 21 10 3 6 -1 10 -9 10 -8 0
-18 -4 -21 -10z"/>
<path d="M406 5752 c-4 -29 -6 -56 -3 -59 8 -8 19 60 15 88 -3 15 -7 5 -12
-29z"/>
<path d="M393 4067 c-15 -19 -23 -47 -14 -47 14 0 42 48 32 54 -5 3 -13 0 -18
-7z"/>
<path d="M144 3438 c-10 -16 -10 -861 0 -911 4 -23 11 -35 18 -31 7 4 8 36 3
98 -4 50 -7 263 -6 474 0 210 -1 382 -4 382 -2 0 -7 -5 -11 -12z"/>
<path d="M580 3333 c0 -22 2 -25 10 -13 13 20 13 40 0 40 -5 0 -10 -12 -10
-27z"/>
<path d="M606 3259 c-9 -13 -16 -32 -16 -43 0 -22 48 -96 61 -96 19 0 1 127
-22 153 -3 5 -14 -2 -23 -14z"/>
<path d="M652 3001 c-1 -8 -13 -27 -27 -41 -27 -29 -36 -75 -38 -191 0 -86 9
-121 31 -117 28 5 42 88 39 233 -1 72 -4 123 -5 116z"/>
<path d="M2007 1783 c-9 -2 -15 -8 -12 -13 6 -10 45 -1 45 11 0 9 -4 10 -33 2z"/>
<path d="M587 1723 c-4 -3 -7 -11 -7 -17 0 -6 5 -5 12 2 6 6 9 14 7 17 -3 3
-9 2 -12 -2z"/>
<path d="M632 1718 c-15 -15 -16 -38 -2 -38 6 0 10 7 10 15 0 8 5 15 10 15 6
0 10 5 10 10 0 14 -13 13 -28 -2z"/>
<path d="M670 1705 c-10 -12 -10 -19 -2 -27 7 -7 13 -9 13 -5 1 4 2 10 3 15 1
4 5 13 9 20 12 17 -8 15 -23 -3z"/>
<path d="M721 1699 c-28 -23 -22 -33 25 -36 28 -1 34 2 34 18 0 10 5 19 11 19
5 0 7 5 4 10 -10 16 -48 11 -74 -11z m39 -3 c0 -3 -4 -8 -10 -11 -5 -3 -10 -1
-10 4 0 6 5 11 10 11 6 0 10 -2 10 -4z"/>
<path d="M807 1689 c-10 -11 -15 -24 -13 -28 13 -21 181 -38 192 -20 5 9 2 10
-9 6 -11 -4 -17 -1 -17 8 0 8 -5 15 -12 15 -6 0 -19 7 -29 16 -28 25 -92 27
-112 3z"/>
<path d="M2293 1703 c-7 -2 -13 -11 -13 -20 0 -20 34 -12 38 10 3 17 -3 20
-25 10z"/>
<path d="M1651 1676 c-19 -7 -36 -17 -38 -23 -9 -25 85 -24 117 2 16 13 58 13
79 1 7 -4 15 -5 18 -2 11 10 -5 19 -37 20 -16 1 -30 4 -30 9 0 11 -71 7 -109
-7z"/>
<path d="M1905 1480 c-3 -5 -1 -10 4 -10 6 0 11 5 11 10 0 6 -2 10 -4 10 -3 0
-8 -4 -11 -10z"/>
<path d="M1950 1470 c0 -5 5 -10 11 -10 5 0 7 5 4 10 -3 6 -8 10 -11 10 -2 0
-4 -4 -4 -10z"/>
</g>
</svg>
